<?xml version="1.0" encoding="UTF-8" standalone="no"?>
<svg xmlns="http://www.w3.org/2000/svg" version="1.1" xmlns:xlink="http://www.w3.org/1999/xlink" xmlns:svgjs="http://svgjs.dev/svgjs" width="1000" height="1000" viewBox="0 0 1000 1000"><rect width="1000" height="1000" fill="#0b022d"></rect><g transform="matrix(0.7,0,0,0.7,149.57575757575756,282.1265587044535)"><svg viewBox="0 0 396 247" data-background-color="#0b022d" preserveAspectRatio="xMidYMid meet" height="623" width="1000" xmlns="http://www.w3.org/2000/svg" xmlns:xlink="http://www.w3.org/1999/xlink"><g id="tight-bounds" transform="matrix(1,0,0,1,0.2400000000000091,-0.09999999999999432)"><svg viewBox="0 0 395.52 247.2" height="247.2" width="395.52"><g><svg></svg></g><g><svg viewBox="0 0 395.52 247.2" height="247.2" width="395.52"><g><g><path xmlns="http://www.w3.org/2000/svg" d="M98.949 20.079c-3.805-3.988-7.656-6.097-11.552-6.327-3.897-0.229-6.578-0.458-8.045-0.687-1.513-0.229-3.003-0.986-4.47-2.269-1.513-1.238-2.269-2.957-2.269-5.158 0-2.155 0.986-3.392 2.957-3.713 1.925-0.367 6.785-0.55 14.577-0.55h29.912l67.043-1.375c30.57 0 58.716 7.951 84.437 23.852l-48.697 0c-14.968-6.045-30.664-9.068-47.086-9.068h-13.752c-11.002 0-18.337 1.948-22.004 5.845-1.167 1.167-2.028 2.242-2.583 3.223l-35.487 0c-0.809-1.251-1.803-2.509-2.981-3.773zM243.143 239.98c-13.065 4.813-26.473 7.22-40.226 7.22l-82.514-1.719c-8.022 0-15.471 0.298-22.348 0.894-6.876 0.55-10.887 0.825-12.034 0.825-5.501 0-8.251-1.49-8.251-4.47 0-1.834 0.413-3.14 1.238-3.919 0.779-0.825 2.498-1.582 5.157-2.269 2.613-0.688 4.492-1.261 5.638-1.719 3.667-1.604 7.06-4.653 10.177-9.146 0.537-0.778 1.028-1.554 1.471-2.329h37.885c1.1 0.765 2.467 1.381 4.102 1.848 3.209 0.917 6.876 1.948 11.002 3.094 4.126 1.146 8.893 2.475 14.302 3.989 5.363 1.467 12.4 2.2 21.11 2.2h6.877c15.586 0 28.88-2.246 39.882-6.739 3.11-1.257 6.184-2.721 9.221-4.392h28.336c-7.764 6.328-18.106 11.872-31.025 16.632z" fill="#f7fff7" fill-rule="nonzero" stroke="none" stroke-width="1" stroke-linecap="butt" stroke-linejoin="miter" stroke-miterlimit="10" stroke-dasharray="" stroke-dashoffset="0" font-family="none" font-weight="none" font-size="none" text-anchor="none" style="mix-blend-mode: normal" data-fill-palette-color="tertiary"></path></g></g><g transform="matrix(1,0,0,1,0,53.780615824756666)"><svg viewBox="0 0 395.52 139.63876835048666" height="139.63876835048666" width="395.52"><g><svg viewBox="0 0 539.8602824685713 190.59826285714283" height="139.63876835048666" width="395.52"><g transform="matrix(1,0,0,1,0,8.779131428571418)"><svg viewBox="0 0 308.41142857142853 173.04" height="173.04" width="308.41142857142853"><g id="textblocktransform"><svg viewBox="0 0 308.41142857142853 173.04" height="173.04" width="308.41142857142853" id="textblock"><g><svg viewBox="0 0 308.41142857142853 173.04" height="173.04" width="308.41142857142853"><g transform="matrix(1,0,0,1,0,0)"><svg width="308.41142857142853" viewBox="1 -36.099998474121094 65.5 36.75" height="173.04" data-palette-color="#f7fff7"><path d="M5.7-18.45L5.7-18.45 5.65-31.15Q5.65-32 4.83-32.88 4-33.75 3.15-33.8 2.3-33.85 1.98-33.9 1.65-33.95 1.33-34.23 1-34.5 1-34.98 1-35.45 1.43-35.52 1.85-35.6 3.55-35.6L3.55-35.6 7.9-35.6 17.65-35.8Q24.9-35.8 30.9-31.7L30.9-31.7Q33.8-29.75 35.6-26.58 37.4-23.4 37.4-19.7 37.4-16 36.93-13.43 36.45-10.85 35.35-8.97 34.25-7.1 33.15-5.93 32.05-4.75 30.35-3.35 28.65-1.95 25.8-0.9 22.95 0.15 19.95 0.15L19.95 0.15 7.95-0.1Q6.2-0.1 4.7 0.03 3.2 0.15 2.95 0.15L2.95 0.15Q1.75 0.15 1.75-0.5L1.75-0.5Q1.75-0.9 1.93-1.07 2.1-1.25 2.68-1.4 3.25-1.55 3.5-1.65L3.5-1.65Q4.3-2 4.98-2.98 5.65-3.95 5.65-4.9L5.65-4.9Q5.65-4.9 5.7-18.45ZM10-27.3L9.9-17.7 9.85-7.05Q9.85-4.7 10.35-3.7L10.35-3.7Q10.6-3.25 11.3-3.05 12-2.85 12.9-2.6 13.8-2.35 14.98-2.02 16.15-1.7 18.05-1.7L18.05-1.7 19.05-1.7Q22.45-1.7 24.85-2.68 27.25-3.65 29.45-5.75L29.45-5.75Q33.15-9.3 33.15-17.25L33.15-17.25Q33.15-21.25 31.58-24.5 30-27.75 27.45-29.7L27.45-29.7Q22.2-33.65 16-33.65L16-33.65 14-33.65Q11.6-33.65 10.8-32.8L10.8-32.8Q10.4-32.4 10.33-32.1 10.25-31.8 10.13-30.93 10-30.05 10-29.4L10-29.4 10-27.3ZM62.35-34.45L62.35-34.45 63.5-34.85Q64.15-34.85 64.25-34.45L64.25-34.45Q65.3-28.4 65.3-27.33 65.3-26.25 64.6-26.25L64.6-26.25Q64.15-26.25 63.72-27.33 63.3-28.4 62.72-29.3 62.15-30.2 61.9-30.45 61.65-30.7 60.6-31.65L60.6-31.65Q57.9-34.05 54.42-34.05 50.95-34.05 48.85-32.55 46.75-31.05 46.75-28.65 46.75-26.25 47.97-24.8 49.2-23.35 51.25-22.55 53.3-21.75 55.55-21.05L55.55-21.05Q61.6-19.15 64.5-16.1L64.5-16.1Q66.5-13.95 66.5-10.75L66.5-10.75Q66.5-5.5 63.15-2.43 59.8 0.65 54.85 0.65L54.85 0.65Q51.4 0.65 49.3 0.28 47.2-0.1 45-1.25L45-1.25Q44.35-1.65 43.45-5.15 42.55-8.65 42.55-9.53 42.55-10.4 43.22-10.4 43.9-10.4 44.05-9.9L44.05-9.9Q45.9-5.45 48.4-3.6L48.4-3.6Q51.1-1.55 54.92-1.55 58.75-1.55 61.02-3.53 63.3-5.5 63.3-8.7L63.3-8.7Q63.3-11.05 61.75-12.63 60.2-14.2 58.2-14.9L58.2-14.9Q50.75-17.4 48.1-18.95L48.1-18.95Q43.55-21.65 43.55-26.2 43.55-30.75 46.77-33.43 50-36.1 55.15-36.1L55.15-36.1Q57.05-36.1 59.67-35.27 62.3-34.45 62.35-34.45Z" opacity="1" transform="matrix(1,0,0,1,0,0)" fill="#f7fff7" class="wordmark-text-0" data-fill-palette-color="primary" id="text-0"></path></svg></g></svg></g></svg></g></svg></g><g transform="matrix(1,0,0,1,349.2620196114285,0)"><svg viewBox="0 0 190.59826285714283 190.59826285714283" height="190.59826285714283" width="190.59826285714283"><g data-palette-color="#ee7ddc"><rect width="52.09685851428571" height="190.59826285714283" fill="#ee7ddc" stroke="transparent" data-fill-palette-color="accent" x="0" fill-opacity="1"></rect><rect width="52.09685851428571" height="190.59826285714283" fill="#ee7ddc" stroke="transparent" data-fill-palette-color="accent" x="63.532754285714276" fill-opacity="0.75"></rect><rect width="52.09685851428571" height="190.59826285714283" fill="#ee7ddc" stroke="transparent" data-fill-palette-color="accent" x="127.06550857142855" fill-opacity="0.5"></rect></g></svg></g></svg></g></svg></g></svg></g><defs></defs></svg><rect width="395.52" height="247.2" fill="none" stroke="none" visibility="hidden"></rect></g></svg></g></svg>
